<mxfile host="app.diagrams.net" modified="2024-03-13T05:30:31.121Z" agent="Mozilla/5.0 (Macintosh; Intel Mac OS X 10_15_7) AppleWebKit/537.36 (KHTML, like Gecko) Chrome/122.0.0.0 Safari/537.36" etag="56dVlrp1kA24viwEa4gp" version="24.0.5" type="github">
  <diagram id="prtHgNgQTEPvFCAcTncT" name="Page-1">
    <mxGraphModel dx="855" dy="616" grid="1" gridSize="10" guides="1" tooltips="1" connect="1" arrows="1" fold="1" page="1" pageScale="1" pageWidth="827" pageHeight="1169" math="0" shadow="0">
      <root>
        <mxCell id="0" />
        <mxCell id="1" parent="0" />
        <mxCell id="dNxyNK7c78bLwvsdeMH5-19" value="READ—UNCOMMITED" style="swimlane;html=1;childLayout=stackLayout;resizeParent=1;resizeParentMax=0;horizontal=0;startSize=20;horizontalStack=0;" parent="1" vertex="1">
          <mxGeometry x="120" y="120" width="580" height="240" as="geometry" />
        </mxCell>
        <mxCell id="dNxyNK7c78bLwvsdeMH5-20" value="session1" style="swimlane;html=1;startSize=20;horizontal=0;" parent="dNxyNK7c78bLwvsdeMH5-19" vertex="1">
          <mxGeometry x="20" width="560" height="120" as="geometry" />
        </mxCell>
        <mxCell id="dNxyNK7c78bLwvsdeMH5-25" value="" style="edgeStyle=orthogonalEdgeStyle;rounded=0;orthogonalLoop=1;jettySize=auto;html=1;" parent="dNxyNK7c78bLwvsdeMH5-20" source="dNxyNK7c78bLwvsdeMH5-23" target="dNxyNK7c78bLwvsdeMH5-24" edge="1">
          <mxGeometry relative="1" as="geometry" />
        </mxCell>
        <mxCell id="dNxyNK7c78bLwvsdeMH5-23" value="start tx" style="ellipse;whiteSpace=wrap;html=1;" parent="dNxyNK7c78bLwvsdeMH5-20" vertex="1">
          <mxGeometry x="40" y="40" width="40" height="40" as="geometry" />
        </mxCell>
        <mxCell id="dNxyNK7c78bLwvsdeMH5-24" value="&lt;div&gt;input:&lt;/div&gt;select for 1&lt;div&gt;return:&lt;/div&gt;&lt;div&gt;empty&lt;/div&gt;" style="rounded=0;whiteSpace=wrap;html=1;fontFamily=Helvetica;fontSize=12;fontColor=#000000;align=left;" parent="dNxyNK7c78bLwvsdeMH5-20" vertex="1">
          <mxGeometry x="110" y="25" width="70" height="70" as="geometry" />
        </mxCell>
        <mxCell id="dNxyNK7c78bLwvsdeMH5-33" value="" style="edgeStyle=orthogonalEdgeStyle;rounded=0;orthogonalLoop=1;jettySize=auto;html=1;endArrow=classic;endFill=1;exitX=1;exitY=0.5;exitDx=0;exitDy=0;" parent="dNxyNK7c78bLwvsdeMH5-20" source="CEz53BCdU4Avep6jtHlV-4" target="dNxyNK7c78bLwvsdeMH5-32" edge="1">
          <mxGeometry relative="1" as="geometry">
            <mxPoint x="320" y="60" as="sourcePoint" />
          </mxGeometry>
        </mxCell>
        <mxCell id="dNxyNK7c78bLwvsdeMH5-32" value="commit" style="ellipse;whiteSpace=wrap;html=1;" parent="dNxyNK7c78bLwvsdeMH5-20" vertex="1">
          <mxGeometry x="480" y="40" width="40" height="40" as="geometry" />
        </mxCell>
        <mxCell id="CEz53BCdU4Avep6jtHlV-4" value="&lt;div&gt;input:&lt;/div&gt;select for 1&lt;div&gt;return:&lt;/div&gt;&lt;div&gt;1&lt;/div&gt;" style="rounded=0;whiteSpace=wrap;html=1;fontFamily=Helvetica;fontSize=12;fontColor=#000000;align=left;" vertex="1" parent="dNxyNK7c78bLwvsdeMH5-20">
          <mxGeometry x="340" y="25" width="70" height="70" as="geometry" />
        </mxCell>
        <mxCell id="CEz53BCdU4Avep6jtHlV-5" value="" style="endArrow=classic;html=1;rounded=0;exitX=1;exitY=0.5;exitDx=0;exitDy=0;entryX=0;entryY=0.5;entryDx=0;entryDy=0;" edge="1" parent="dNxyNK7c78bLwvsdeMH5-20" source="dNxyNK7c78bLwvsdeMH5-24" target="CEz53BCdU4Avep6jtHlV-4">
          <mxGeometry width="50" height="50" relative="1" as="geometry">
            <mxPoint x="250" y="210" as="sourcePoint" />
            <mxPoint x="300" y="160" as="targetPoint" />
          </mxGeometry>
        </mxCell>
        <mxCell id="dNxyNK7c78bLwvsdeMH5-21" value="session2" style="swimlane;html=1;startSize=20;horizontal=0;" parent="dNxyNK7c78bLwvsdeMH5-19" vertex="1">
          <mxGeometry x="20" y="120" width="560" height="120" as="geometry" />
        </mxCell>
        <mxCell id="CEz53BCdU4Avep6jtHlV-1" value="start tx" style="ellipse;whiteSpace=wrap;html=1;" vertex="1" parent="dNxyNK7c78bLwvsdeMH5-21">
          <mxGeometry x="40" y="50" width="40" height="40" as="geometry" />
        </mxCell>
        <mxCell id="CEz53BCdU4Avep6jtHlV-2" value="&lt;div&gt;input:&lt;/div&gt;&lt;div&gt;insert 1&lt;/div&gt;&lt;div&gt;return:&lt;/div&gt;&lt;div&gt;success&lt;/div&gt;" style="rounded=0;whiteSpace=wrap;html=1;fontFamily=Helvetica;fontSize=12;fontColor=#000000;align=left;" vertex="1" parent="dNxyNK7c78bLwvsdeMH5-21">
          <mxGeometry x="230" y="35" width="65" height="70" as="geometry" />
        </mxCell>
        <mxCell id="CEz53BCdU4Avep6jtHlV-3" value="" style="endArrow=classic;html=1;rounded=0;exitX=1;exitY=0.5;exitDx=0;exitDy=0;entryX=0;entryY=0.5;entryDx=0;entryDy=0;" edge="1" parent="dNxyNK7c78bLwvsdeMH5-21" source="CEz53BCdU4Avep6jtHlV-1" target="CEz53BCdU4Avep6jtHlV-2">
          <mxGeometry width="50" height="50" relative="1" as="geometry">
            <mxPoint x="250" y="90" as="sourcePoint" />
            <mxPoint x="300" y="40" as="targetPoint" />
          </mxGeometry>
        </mxCell>
        <mxCell id="CEz53BCdU4Avep6jtHlV-6" value="commit" style="ellipse;whiteSpace=wrap;html=1;" vertex="1" parent="dNxyNK7c78bLwvsdeMH5-21">
          <mxGeometry x="480" y="50" width="40" height="40" as="geometry" />
        </mxCell>
        <mxCell id="CEz53BCdU4Avep6jtHlV-7" value="" style="endArrow=classic;html=1;rounded=0;exitX=1;exitY=0.5;exitDx=0;exitDy=0;entryX=0;entryY=0.5;entryDx=0;entryDy=0;" edge="1" parent="dNxyNK7c78bLwvsdeMH5-21" source="CEz53BCdU4Avep6jtHlV-2" target="CEz53BCdU4Avep6jtHlV-6">
          <mxGeometry width="50" height="50" relative="1" as="geometry">
            <mxPoint x="250" y="90" as="sourcePoint" />
            <mxPoint x="300" y="40" as="targetPoint" />
          </mxGeometry>
        </mxCell>
        <mxCell id="CEz53BCdU4Avep6jtHlV-59" value="READ—COMMITED" style="swimlane;html=1;childLayout=stackLayout;resizeParent=1;resizeParentMax=0;horizontal=0;startSize=20;horizontalStack=0;" vertex="1" parent="1">
          <mxGeometry x="120" y="424" width="580" height="240" as="geometry" />
        </mxCell>
        <mxCell id="CEz53BCdU4Avep6jtHlV-60" value="session1" style="swimlane;html=1;startSize=20;horizontal=0;" vertex="1" parent="CEz53BCdU4Avep6jtHlV-59">
          <mxGeometry x="20" width="560" height="120" as="geometry" />
        </mxCell>
        <mxCell id="CEz53BCdU4Avep6jtHlV-61" value="" style="edgeStyle=orthogonalEdgeStyle;rounded=0;orthogonalLoop=1;jettySize=auto;html=1;" edge="1" parent="CEz53BCdU4Avep6jtHlV-60" source="CEz53BCdU4Avep6jtHlV-62" target="CEz53BCdU4Avep6jtHlV-63">
          <mxGeometry relative="1" as="geometry" />
        </mxCell>
        <mxCell id="CEz53BCdU4Avep6jtHlV-62" value="start tx" style="ellipse;whiteSpace=wrap;html=1;" vertex="1" parent="CEz53BCdU4Avep6jtHlV-60">
          <mxGeometry x="40" y="40" width="40" height="40" as="geometry" />
        </mxCell>
        <mxCell id="CEz53BCdU4Avep6jtHlV-63" value="&lt;div&gt;input:&lt;/div&gt;select for 1&lt;div&gt;return:&lt;/div&gt;&lt;div&gt;empty&lt;/div&gt;" style="rounded=0;whiteSpace=wrap;html=1;fontFamily=Helvetica;fontSize=12;fontColor=#000000;align=left;" vertex="1" parent="CEz53BCdU4Avep6jtHlV-60">
          <mxGeometry x="110" y="25" width="70" height="70" as="geometry" />
        </mxCell>
        <mxCell id="CEz53BCdU4Avep6jtHlV-64" value="" style="edgeStyle=orthogonalEdgeStyle;rounded=0;orthogonalLoop=1;jettySize=auto;html=1;endArrow=classic;endFill=1;exitX=1;exitY=0.5;exitDx=0;exitDy=0;" edge="1" parent="CEz53BCdU4Avep6jtHlV-60" source="CEz53BCdU4Avep6jtHlV-66" target="CEz53BCdU4Avep6jtHlV-65">
          <mxGeometry relative="1" as="geometry">
            <mxPoint x="320" y="60" as="sourcePoint" />
          </mxGeometry>
        </mxCell>
        <mxCell id="CEz53BCdU4Avep6jtHlV-65" value="commit" style="ellipse;whiteSpace=wrap;html=1;" vertex="1" parent="CEz53BCdU4Avep6jtHlV-60">
          <mxGeometry x="480" y="40" width="40" height="40" as="geometry" />
        </mxCell>
        <mxCell id="CEz53BCdU4Avep6jtHlV-66" value="&lt;div&gt;input:&lt;/div&gt;select for 1&lt;div&gt;return:&lt;/div&gt;&lt;div&gt;empty&lt;/div&gt;" style="rounded=0;whiteSpace=wrap;html=1;fontFamily=Helvetica;fontSize=12;fontColor=#000000;align=left;" vertex="1" parent="CEz53BCdU4Avep6jtHlV-60">
          <mxGeometry x="340" y="25" width="70" height="70" as="geometry" />
        </mxCell>
        <mxCell id="CEz53BCdU4Avep6jtHlV-67" value="" style="endArrow=classic;html=1;rounded=0;exitX=1;exitY=0.5;exitDx=0;exitDy=0;entryX=0;entryY=0.5;entryDx=0;entryDy=0;" edge="1" parent="CEz53BCdU4Avep6jtHlV-60" source="CEz53BCdU4Avep6jtHlV-63" target="CEz53BCdU4Avep6jtHlV-66">
          <mxGeometry width="50" height="50" relative="1" as="geometry">
            <mxPoint x="250" y="210" as="sourcePoint" />
            <mxPoint x="300" y="160" as="targetPoint" />
          </mxGeometry>
        </mxCell>
        <mxCell id="CEz53BCdU4Avep6jtHlV-68" value="session2" style="swimlane;html=1;startSize=20;horizontal=0;" vertex="1" parent="CEz53BCdU4Avep6jtHlV-59">
          <mxGeometry x="20" y="120" width="560" height="120" as="geometry" />
        </mxCell>
        <mxCell id="CEz53BCdU4Avep6jtHlV-69" value="start tx" style="ellipse;whiteSpace=wrap;html=1;" vertex="1" parent="CEz53BCdU4Avep6jtHlV-68">
          <mxGeometry x="40" y="50" width="40" height="40" as="geometry" />
        </mxCell>
        <mxCell id="CEz53BCdU4Avep6jtHlV-70" value="&lt;div&gt;input:&lt;/div&gt;&lt;div&gt;insert 1&lt;/div&gt;&lt;div&gt;return:&lt;/div&gt;&lt;div&gt;success&lt;/div&gt;" style="rounded=0;whiteSpace=wrap;html=1;fontFamily=Helvetica;fontSize=12;fontColor=#000000;align=left;" vertex="1" parent="CEz53BCdU4Avep6jtHlV-68">
          <mxGeometry x="230" y="35" width="65" height="70" as="geometry" />
        </mxCell>
        <mxCell id="CEz53BCdU4Avep6jtHlV-71" value="" style="endArrow=classic;html=1;rounded=0;exitX=1;exitY=0.5;exitDx=0;exitDy=0;entryX=0;entryY=0.5;entryDx=0;entryDy=0;" edge="1" parent="CEz53BCdU4Avep6jtHlV-68" source="CEz53BCdU4Avep6jtHlV-69" target="CEz53BCdU4Avep6jtHlV-70">
          <mxGeometry width="50" height="50" relative="1" as="geometry">
            <mxPoint x="250" y="90" as="sourcePoint" />
            <mxPoint x="300" y="40" as="targetPoint" />
          </mxGeometry>
        </mxCell>
        <mxCell id="CEz53BCdU4Avep6jtHlV-72" value="commit" style="ellipse;whiteSpace=wrap;html=1;" vertex="1" parent="CEz53BCdU4Avep6jtHlV-68">
          <mxGeometry x="480" y="50" width="40" height="40" as="geometry" />
        </mxCell>
        <mxCell id="CEz53BCdU4Avep6jtHlV-73" value="" style="endArrow=classic;html=1;rounded=0;exitX=1;exitY=0.5;exitDx=0;exitDy=0;entryX=0;entryY=0.5;entryDx=0;entryDy=0;" edge="1" parent="CEz53BCdU4Avep6jtHlV-68" source="CEz53BCdU4Avep6jtHlV-70" target="CEz53BCdU4Avep6jtHlV-72">
          <mxGeometry width="50" height="50" relative="1" as="geometry">
            <mxPoint x="250" y="90" as="sourcePoint" />
            <mxPoint x="300" y="40" as="targetPoint" />
          </mxGeometry>
        </mxCell>
        <mxCell id="CEz53BCdU4Avep6jtHlV-89" value="REPEATED—READ" style="swimlane;html=1;childLayout=stackLayout;resizeParent=1;resizeParentMax=0;horizontal=0;startSize=20;horizontalStack=0;" vertex="1" parent="1">
          <mxGeometry x="120" y="720" width="580" height="240" as="geometry" />
        </mxCell>
        <mxCell id="CEz53BCdU4Avep6jtHlV-90" value="session1" style="swimlane;html=1;startSize=20;horizontal=0;" vertex="1" parent="CEz53BCdU4Avep6jtHlV-89">
          <mxGeometry x="20" width="560" height="120" as="geometry" />
        </mxCell>
        <mxCell id="CEz53BCdU4Avep6jtHlV-91" value="" style="edgeStyle=orthogonalEdgeStyle;rounded=0;orthogonalLoop=1;jettySize=auto;html=1;" edge="1" parent="CEz53BCdU4Avep6jtHlV-90" source="CEz53BCdU4Avep6jtHlV-92" target="CEz53BCdU4Avep6jtHlV-93">
          <mxGeometry relative="1" as="geometry" />
        </mxCell>
        <mxCell id="CEz53BCdU4Avep6jtHlV-92" value="start tx" style="ellipse;whiteSpace=wrap;html=1;" vertex="1" parent="CEz53BCdU4Avep6jtHlV-90">
          <mxGeometry x="40" y="40" width="40" height="40" as="geometry" />
        </mxCell>
        <mxCell id="CEz53BCdU4Avep6jtHlV-93" value="&lt;div&gt;input:&lt;/div&gt;select for 1&lt;div&gt;return:&lt;/div&gt;&lt;div&gt;empty&lt;/div&gt;" style="rounded=0;whiteSpace=wrap;html=1;fontFamily=Helvetica;fontSize=12;fontColor=#000000;align=left;" vertex="1" parent="CEz53BCdU4Avep6jtHlV-90">
          <mxGeometry x="110" y="25" width="70" height="70" as="geometry" />
        </mxCell>
        <mxCell id="CEz53BCdU4Avep6jtHlV-94" value="" style="edgeStyle=orthogonalEdgeStyle;rounded=0;orthogonalLoop=1;jettySize=auto;html=1;endArrow=classic;endFill=1;exitX=1;exitY=0.5;exitDx=0;exitDy=0;" edge="1" parent="CEz53BCdU4Avep6jtHlV-90" source="CEz53BCdU4Avep6jtHlV-96" target="CEz53BCdU4Avep6jtHlV-95">
          <mxGeometry relative="1" as="geometry">
            <mxPoint x="320" y="60" as="sourcePoint" />
          </mxGeometry>
        </mxCell>
        <mxCell id="CEz53BCdU4Avep6jtHlV-95" value="commit" style="ellipse;whiteSpace=wrap;html=1;" vertex="1" parent="CEz53BCdU4Avep6jtHlV-90">
          <mxGeometry x="480" y="40" width="40" height="40" as="geometry" />
        </mxCell>
        <mxCell id="CEz53BCdU4Avep6jtHlV-96" value="&lt;div&gt;input:&lt;/div&gt;select for 1&lt;div&gt;return:&lt;/div&gt;&lt;div&gt;empty&lt;/div&gt;" style="rounded=0;whiteSpace=wrap;html=1;fontFamily=Helvetica;fontSize=12;fontColor=#000000;align=left;" vertex="1" parent="CEz53BCdU4Avep6jtHlV-90">
          <mxGeometry x="340" y="25" width="70" height="70" as="geometry" />
        </mxCell>
        <mxCell id="CEz53BCdU4Avep6jtHlV-97" value="" style="endArrow=classic;html=1;rounded=0;exitX=1;exitY=0.5;exitDx=0;exitDy=0;entryX=0;entryY=0.5;entryDx=0;entryDy=0;" edge="1" parent="CEz53BCdU4Avep6jtHlV-90" source="CEz53BCdU4Avep6jtHlV-93" target="CEz53BCdU4Avep6jtHlV-96">
          <mxGeometry width="50" height="50" relative="1" as="geometry">
            <mxPoint x="250" y="210" as="sourcePoint" />
            <mxPoint x="300" y="160" as="targetPoint" />
          </mxGeometry>
        </mxCell>
        <mxCell id="CEz53BCdU4Avep6jtHlV-98" value="session2" style="swimlane;html=1;startSize=20;horizontal=0;" vertex="1" parent="CEz53BCdU4Avep6jtHlV-89">
          <mxGeometry x="20" y="120" width="560" height="120" as="geometry" />
        </mxCell>
        <mxCell id="CEz53BCdU4Avep6jtHlV-99" value="start tx" style="ellipse;whiteSpace=wrap;html=1;" vertex="1" parent="CEz53BCdU4Avep6jtHlV-98">
          <mxGeometry x="40" y="50" width="40" height="40" as="geometry" />
        </mxCell>
        <mxCell id="CEz53BCdU4Avep6jtHlV-100" value="&lt;div&gt;input:&lt;/div&gt;&lt;div&gt;insert 1&lt;/div&gt;&lt;div&gt;return:&lt;/div&gt;&lt;div&gt;success&lt;/div&gt;" style="rounded=0;whiteSpace=wrap;html=1;fontFamily=Helvetica;fontSize=12;fontColor=#000000;align=left;" vertex="1" parent="CEz53BCdU4Avep6jtHlV-98">
          <mxGeometry x="230" y="35" width="65" height="70" as="geometry" />
        </mxCell>
        <mxCell id="CEz53BCdU4Avep6jtHlV-101" value="" style="endArrow=classic;html=1;rounded=0;exitX=1;exitY=0.5;exitDx=0;exitDy=0;entryX=0;entryY=0.5;entryDx=0;entryDy=0;" edge="1" parent="CEz53BCdU4Avep6jtHlV-98" source="CEz53BCdU4Avep6jtHlV-99" target="CEz53BCdU4Avep6jtHlV-100">
          <mxGeometry width="50" height="50" relative="1" as="geometry">
            <mxPoint x="250" y="90" as="sourcePoint" />
            <mxPoint x="300" y="40" as="targetPoint" />
          </mxGeometry>
        </mxCell>
        <mxCell id="CEz53BCdU4Avep6jtHlV-102" value="commit" style="ellipse;whiteSpace=wrap;html=1;" vertex="1" parent="CEz53BCdU4Avep6jtHlV-98">
          <mxGeometry x="480" y="50" width="40" height="40" as="geometry" />
        </mxCell>
        <mxCell id="CEz53BCdU4Avep6jtHlV-103" value="" style="endArrow=classic;html=1;rounded=0;exitX=1;exitY=0.5;exitDx=0;exitDy=0;entryX=0;entryY=0.5;entryDx=0;entryDy=0;" edge="1" parent="CEz53BCdU4Avep6jtHlV-98" source="CEz53BCdU4Avep6jtHlV-100" target="CEz53BCdU4Avep6jtHlV-102">
          <mxGeometry width="50" height="50" relative="1" as="geometry">
            <mxPoint x="250" y="90" as="sourcePoint" />
            <mxPoint x="300" y="40" as="targetPoint" />
          </mxGeometry>
        </mxCell>
        <mxCell id="CEz53BCdU4Avep6jtHlV-104" value="READ—COMMITED" style="swimlane;html=1;childLayout=stackLayout;resizeParent=1;resizeParentMax=0;horizontal=0;startSize=20;horizontalStack=0;" vertex="1" parent="1">
          <mxGeometry x="120" y="1060" width="680" height="240" as="geometry" />
        </mxCell>
        <mxCell id="CEz53BCdU4Avep6jtHlV-105" value="session1" style="swimlane;html=1;startSize=20;horizontal=0;" vertex="1" parent="CEz53BCdU4Avep6jtHlV-104">
          <mxGeometry x="20" width="660" height="120" as="geometry" />
        </mxCell>
        <mxCell id="CEz53BCdU4Avep6jtHlV-106" value="" style="edgeStyle=orthogonalEdgeStyle;rounded=0;orthogonalLoop=1;jettySize=auto;html=1;" edge="1" parent="CEz53BCdU4Avep6jtHlV-105" source="CEz53BCdU4Avep6jtHlV-107" target="CEz53BCdU4Avep6jtHlV-108">
          <mxGeometry relative="1" as="geometry" />
        </mxCell>
        <mxCell id="CEz53BCdU4Avep6jtHlV-107" value="start tx" style="ellipse;whiteSpace=wrap;html=1;" vertex="1" parent="CEz53BCdU4Avep6jtHlV-105">
          <mxGeometry x="40" y="40" width="40" height="40" as="geometry" />
        </mxCell>
        <mxCell id="CEz53BCdU4Avep6jtHlV-108" value="&lt;div&gt;input:&lt;/div&gt;select for 1&lt;div&gt;return:&lt;/div&gt;&lt;div&gt;empty&lt;/div&gt;" style="rounded=0;whiteSpace=wrap;html=1;fontFamily=Helvetica;fontSize=12;fontColor=#000000;align=left;" vertex="1" parent="CEz53BCdU4Avep6jtHlV-105">
          <mxGeometry x="150" y="25" width="70" height="70" as="geometry" />
        </mxCell>
        <mxCell id="CEz53BCdU4Avep6jtHlV-109" value="" style="edgeStyle=orthogonalEdgeStyle;rounded=0;orthogonalLoop=1;jettySize=auto;html=1;endArrow=classic;endFill=1;exitX=1;exitY=0.5;exitDx=0;exitDy=0;" edge="1" parent="CEz53BCdU4Avep6jtHlV-105" source="CEz53BCdU4Avep6jtHlV-111" target="CEz53BCdU4Avep6jtHlV-110">
          <mxGeometry relative="1" as="geometry">
            <mxPoint x="320" y="60" as="sourcePoint" />
          </mxGeometry>
        </mxCell>
        <mxCell id="CEz53BCdU4Avep6jtHlV-110" value="commit" style="ellipse;whiteSpace=wrap;html=1;" vertex="1" parent="CEz53BCdU4Avep6jtHlV-105">
          <mxGeometry x="570" y="40" width="40" height="40" as="geometry" />
        </mxCell>
        <mxCell id="CEz53BCdU4Avep6jtHlV-111" value="&lt;div&gt;input:&lt;/div&gt;select for 1&lt;div&gt;return:&lt;/div&gt;&lt;div&gt;1&lt;/div&gt;" style="rounded=0;whiteSpace=wrap;html=1;fontFamily=Helvetica;fontSize=12;fontColor=#000000;align=left;" vertex="1" parent="CEz53BCdU4Avep6jtHlV-105">
          <mxGeometry x="400" y="25" width="70" height="70" as="geometry" />
        </mxCell>
        <mxCell id="CEz53BCdU4Avep6jtHlV-112" value="" style="endArrow=classic;html=1;rounded=0;exitX=1;exitY=0.5;exitDx=0;exitDy=0;entryX=0;entryY=0.5;entryDx=0;entryDy=0;" edge="1" parent="CEz53BCdU4Avep6jtHlV-105" source="CEz53BCdU4Avep6jtHlV-108" target="CEz53BCdU4Avep6jtHlV-111">
          <mxGeometry width="50" height="50" relative="1" as="geometry">
            <mxPoint x="250" y="210" as="sourcePoint" />
            <mxPoint x="300" y="160" as="targetPoint" />
          </mxGeometry>
        </mxCell>
        <mxCell id="CEz53BCdU4Avep6jtHlV-113" value="session2" style="swimlane;html=1;startSize=20;horizontal=0;" vertex="1" parent="CEz53BCdU4Avep6jtHlV-104">
          <mxGeometry x="20" y="120" width="660" height="120" as="geometry" />
        </mxCell>
        <mxCell id="CEz53BCdU4Avep6jtHlV-114" value="start tx" style="ellipse;whiteSpace=wrap;html=1;" vertex="1" parent="CEz53BCdU4Avep6jtHlV-113">
          <mxGeometry x="90" y="50" width="40" height="40" as="geometry" />
        </mxCell>
        <mxCell id="CEz53BCdU4Avep6jtHlV-115" value="&lt;div&gt;input:&lt;/div&gt;&lt;div&gt;insert 1&lt;/div&gt;&lt;div&gt;return:&lt;/div&gt;&lt;div&gt;success&lt;/div&gt;" style="rounded=0;whiteSpace=wrap;html=1;fontFamily=Helvetica;fontSize=12;fontColor=#000000;align=left;" vertex="1" parent="CEz53BCdU4Avep6jtHlV-113">
          <mxGeometry x="270" y="35" width="65" height="70" as="geometry" />
        </mxCell>
        <mxCell id="CEz53BCdU4Avep6jtHlV-116" value="" style="endArrow=classic;html=1;rounded=0;exitX=1;exitY=0.5;exitDx=0;exitDy=0;entryX=0;entryY=0.5;entryDx=0;entryDy=0;" edge="1" parent="CEz53BCdU4Avep6jtHlV-113" source="CEz53BCdU4Avep6jtHlV-114" target="CEz53BCdU4Avep6jtHlV-115">
          <mxGeometry width="50" height="50" relative="1" as="geometry">
            <mxPoint x="250" y="90" as="sourcePoint" />
            <mxPoint x="300" y="40" as="targetPoint" />
          </mxGeometry>
        </mxCell>
        <mxCell id="CEz53BCdU4Avep6jtHlV-117" value="commit" style="ellipse;whiteSpace=wrap;html=1;" vertex="1" parent="CEz53BCdU4Avep6jtHlV-113">
          <mxGeometry x="500" y="50" width="40" height="40" as="geometry" />
        </mxCell>
        <mxCell id="CEz53BCdU4Avep6jtHlV-118" value="" style="endArrow=classic;html=1;rounded=0;exitX=1;exitY=0.5;exitDx=0;exitDy=0;entryX=0;entryY=0.5;entryDx=0;entryDy=0;" edge="1" parent="CEz53BCdU4Avep6jtHlV-113" source="CEz53BCdU4Avep6jtHlV-115" target="CEz53BCdU4Avep6jtHlV-117">
          <mxGeometry width="50" height="50" relative="1" as="geometry">
            <mxPoint x="250" y="90" as="sourcePoint" />
            <mxPoint x="300" y="40" as="targetPoint" />
          </mxGeometry>
        </mxCell>
        <mxCell id="CEz53BCdU4Avep6jtHlV-119" value="Case 01" style="text;strokeColor=none;fillColor=none;html=1;fontSize=24;fontStyle=1;verticalAlign=middle;align=center;" vertex="1" parent="1">
          <mxGeometry x="120" y="40" width="100" height="40" as="geometry" />
        </mxCell>
        <mxCell id="CEz53BCdU4Avep6jtHlV-120" value="Case 02" style="text;strokeColor=none;fillColor=none;html=1;fontSize=24;fontStyle=1;verticalAlign=middle;align=center;" vertex="1" parent="1">
          <mxGeometry x="110" y="980" width="100" height="40" as="geometry" />
        </mxCell>
        <mxCell id="CEz53BCdU4Avep6jtHlV-122" value="REPEATED—READ" style="swimlane;html=1;childLayout=stackLayout;resizeParent=1;resizeParentMax=0;horizontal=0;startSize=20;horizontalStack=0;" vertex="1" parent="1">
          <mxGeometry x="120" y="1450" width="680" height="240" as="geometry" />
        </mxCell>
        <mxCell id="CEz53BCdU4Avep6jtHlV-123" value="session1" style="swimlane;html=1;startSize=20;horizontal=0;" vertex="1" parent="CEz53BCdU4Avep6jtHlV-122">
          <mxGeometry x="20" width="660" height="120" as="geometry" />
        </mxCell>
        <mxCell id="CEz53BCdU4Avep6jtHlV-124" value="" style="edgeStyle=orthogonalEdgeStyle;rounded=0;orthogonalLoop=1;jettySize=auto;html=1;" edge="1" parent="CEz53BCdU4Avep6jtHlV-123" source="CEz53BCdU4Avep6jtHlV-125" target="CEz53BCdU4Avep6jtHlV-126">
          <mxGeometry relative="1" as="geometry" />
        </mxCell>
        <mxCell id="CEz53BCdU4Avep6jtHlV-125" value="start tx" style="ellipse;whiteSpace=wrap;html=1;" vertex="1" parent="CEz53BCdU4Avep6jtHlV-123">
          <mxGeometry x="40" y="40" width="40" height="40" as="geometry" />
        </mxCell>
        <mxCell id="CEz53BCdU4Avep6jtHlV-126" value="&lt;div&gt;input:&lt;/div&gt;select for 1&lt;div&gt;return:&lt;/div&gt;&lt;div&gt;empty&lt;/div&gt;" style="rounded=0;whiteSpace=wrap;html=1;fontFamily=Helvetica;fontSize=12;fontColor=#000000;align=left;" vertex="1" parent="CEz53BCdU4Avep6jtHlV-123">
          <mxGeometry x="150" y="25" width="70" height="70" as="geometry" />
        </mxCell>
        <mxCell id="CEz53BCdU4Avep6jtHlV-127" value="" style="edgeStyle=orthogonalEdgeStyle;rounded=0;orthogonalLoop=1;jettySize=auto;html=1;endArrow=classic;endFill=1;exitX=1;exitY=0.5;exitDx=0;exitDy=0;" edge="1" parent="CEz53BCdU4Avep6jtHlV-123" source="CEz53BCdU4Avep6jtHlV-129" target="CEz53BCdU4Avep6jtHlV-128">
          <mxGeometry relative="1" as="geometry">
            <mxPoint x="320" y="60" as="sourcePoint" />
          </mxGeometry>
        </mxCell>
        <mxCell id="CEz53BCdU4Avep6jtHlV-128" value="commit" style="ellipse;whiteSpace=wrap;html=1;" vertex="1" parent="CEz53BCdU4Avep6jtHlV-123">
          <mxGeometry x="570" y="40" width="40" height="40" as="geometry" />
        </mxCell>
        <mxCell id="CEz53BCdU4Avep6jtHlV-129" value="&lt;div&gt;input:&lt;/div&gt;select for 1&lt;div&gt;return:&lt;/div&gt;&lt;div&gt;empty&lt;/div&gt;" style="rounded=0;whiteSpace=wrap;html=1;fontFamily=Helvetica;fontSize=12;fontColor=#000000;align=left;" vertex="1" parent="CEz53BCdU4Avep6jtHlV-123">
          <mxGeometry x="400" y="25" width="70" height="70" as="geometry" />
        </mxCell>
        <mxCell id="CEz53BCdU4Avep6jtHlV-130" value="" style="endArrow=classic;html=1;rounded=0;exitX=1;exitY=0.5;exitDx=0;exitDy=0;entryX=0;entryY=0.5;entryDx=0;entryDy=0;" edge="1" parent="CEz53BCdU4Avep6jtHlV-123" source="CEz53BCdU4Avep6jtHlV-126" target="CEz53BCdU4Avep6jtHlV-129">
          <mxGeometry width="50" height="50" relative="1" as="geometry">
            <mxPoint x="250" y="210" as="sourcePoint" />
            <mxPoint x="300" y="160" as="targetPoint" />
          </mxGeometry>
        </mxCell>
        <mxCell id="CEz53BCdU4Avep6jtHlV-131" value="session2" style="swimlane;html=1;startSize=20;horizontal=0;" vertex="1" parent="CEz53BCdU4Avep6jtHlV-122">
          <mxGeometry x="20" y="120" width="660" height="120" as="geometry" />
        </mxCell>
        <mxCell id="CEz53BCdU4Avep6jtHlV-132" value="start tx" style="ellipse;whiteSpace=wrap;html=1;" vertex="1" parent="CEz53BCdU4Avep6jtHlV-131">
          <mxGeometry x="90" y="50" width="40" height="40" as="geometry" />
        </mxCell>
        <mxCell id="CEz53BCdU4Avep6jtHlV-133" value="&lt;div&gt;input:&lt;/div&gt;&lt;div&gt;insert 1&lt;/div&gt;&lt;div&gt;return:&lt;/div&gt;&lt;div&gt;success&lt;/div&gt;" style="rounded=0;whiteSpace=wrap;html=1;fontFamily=Helvetica;fontSize=12;fontColor=#000000;align=left;" vertex="1" parent="CEz53BCdU4Avep6jtHlV-131">
          <mxGeometry x="270" y="35" width="65" height="70" as="geometry" />
        </mxCell>
        <mxCell id="CEz53BCdU4Avep6jtHlV-134" value="" style="endArrow=classic;html=1;rounded=0;exitX=1;exitY=0.5;exitDx=0;exitDy=0;entryX=0;entryY=0.5;entryDx=0;entryDy=0;" edge="1" parent="CEz53BCdU4Avep6jtHlV-131" source="CEz53BCdU4Avep6jtHlV-132" target="CEz53BCdU4Avep6jtHlV-133">
          <mxGeometry width="50" height="50" relative="1" as="geometry">
            <mxPoint x="250" y="90" as="sourcePoint" />
            <mxPoint x="300" y="40" as="targetPoint" />
          </mxGeometry>
        </mxCell>
        <mxCell id="CEz53BCdU4Avep6jtHlV-135" value="commit" style="ellipse;whiteSpace=wrap;html=1;" vertex="1" parent="CEz53BCdU4Avep6jtHlV-131">
          <mxGeometry x="500" y="50" width="40" height="40" as="geometry" />
        </mxCell>
        <mxCell id="CEz53BCdU4Avep6jtHlV-136" value="" style="endArrow=classic;html=1;rounded=0;exitX=1;exitY=0.5;exitDx=0;exitDy=0;entryX=0;entryY=0.5;entryDx=0;entryDy=0;" edge="1" parent="CEz53BCdU4Avep6jtHlV-131" source="CEz53BCdU4Avep6jtHlV-133" target="CEz53BCdU4Avep6jtHlV-135">
          <mxGeometry width="50" height="50" relative="1" as="geometry">
            <mxPoint x="250" y="90" as="sourcePoint" />
            <mxPoint x="300" y="40" as="targetPoint" />
          </mxGeometry>
        </mxCell>
      </root>
    </mxGraphModel>
  </diagram>
</mxfile>
